<svg xmlns="http://www.w3.org/2000/svg" width="423" height="247">
    <defs>
        <filter id="a">
            <feFlood flood-color="#787777" flood-opacity="1" result="floodOut"/>
            <feComposite in="floodOut" in2="SourceGraphic" operator="atop" result="compOut"/>
            <feBlend in="compOut" in2="SourceGraphic"/>
        </filter>
    </defs>
    <path fill="#5E95CD" fill-rule="evenodd" stroke="#FFF" d="M8.5 233.5h406a5 5 0 1 1 0 10H8.5a5 5 0 0 1 0-10z"/>
    <path fill="#5E95CD" fill-rule="evenodd" stroke="#FFF" d="M55.5 3.5h311c5.523 0 10 4.477 10 10v212c0 5.523-4.477 10-10 10h-311c-5.523 0-10-4.477-10-10v-212c0-5.523 4.477-10 10-10z"/>
    <path fill="#5E95CD" fill-rule="evenodd" stroke="#FFF" d="M3.5 221.5h416v18H3.5v-18z"/>
    <path fill="#5E95CD" fill-rule="evenodd" stroke="#FFF" d="M240.5 221.5v3a3 3 0 0 1-3 3h-52a3 3 0 0 1-3-3v-3c.03.087 58.008-.064 58 0z"/>
    <path fill="#BEBFBF" fill-rule="evenodd" d="M211.5 9a1.5 1.5 0 1 1 0 3 1.5 1.5 0 0 1 0-3z" filter="url(#a)"/>
    <path fill="#5E95CD" fill-rule="evenodd" stroke="#FFF" d="M56.5 14.5h308v193h-308v-193z"/>
</svg>
